<svg width="24" height="24" viewBox="0 0 24 24" fill="none" xmlns="http://www.w3.org/2000/svg">
<path d="M12 14.4C13.3255 14.4 14.4 13.3255 14.4 12C14.4 10.6745 13.3255 9.59999 12 9.59999C10.6745 9.59999 9.59999 10.6745 9.59999 12C9.59999 13.3255 10.6745 14.4 12 14.4ZM9.59999 2.99999C9.59999 2.66863 9.33136 2.39999 8.99999 2.39999C8.66863 2.39999 8.39999 2.66863 8.39999 2.99999V4.79999H7.79999C6.14314 4.79999 4.79999 6.14314 4.79999 7.79999V8.39999H2.99999C2.66863 8.39999 2.39999 8.66863 2.39999 8.99999C2.39999 9.33136 2.66863 9.59999 2.99999 9.59999H4.79999V11.4H2.99999C2.66863 11.4 2.39999 11.6686 2.39999 12C2.39999 12.3313 2.66863 12.6 2.99999 12.6H4.79999V14.4H2.99999C2.66863 14.4 2.39999 14.6687 2.39999 15C2.39999 15.3313 2.66863 15.6 2.99999 15.6H4.79999V16.2C4.79999 17.8568 6.14314 19.2 7.79999 19.2H8.39999V21C8.39999 21.3313 8.66863 21.6 8.99999 21.6C9.33136 21.6 9.59999 21.3313 9.59999 21V19.2H11.4V21C11.4 21.3313 11.6686 21.6 12 21.6C12.3313 21.6 12.6 21.3313 12.6 21V19.2H14.4V21C14.4 21.3313 14.6687 21.6 15 21.6C15.3313 21.6 15.6 21.3313 15.6 21V19.2H16.2C17.8568 19.2 19.2 17.8568 19.2 16.2V15.6H21C21.3313 15.6 21.6 15.3313 21.6 15C21.6 14.6687 21.3313 14.4 21 14.4H19.2V12.6H21C21.3313 12.6 21.6 12.3313 21.6 12C21.6 11.6686 21.3313 11.4 21 11.4H19.2V9.59999H21C21.3313 9.59999 21.6 9.33136 21.6 8.99999C21.6 8.66863 21.3313 8.39999 21 8.39999H19.2V7.79999C19.2 6.14314 17.8568 4.79999 16.2 4.79999H15.6V2.99999C15.6 2.66863 15.3313 2.39999 15 2.39999C14.6687 2.39999 14.4 2.66863 14.4 2.99999V4.79999H12.6V2.99999C12.6 2.66863 12.3313 2.39999 12 2.39999C11.6686 2.39999 11.4 2.66863 11.4 2.99999V4.79999H9.59999V2.99999ZM15.6 12C15.6 13.9883 13.9883 15.6 12 15.6C10.0118 15.6 8.39999 13.9883 8.39999 12C8.39999 10.0118 10.0118 8.39999 12 8.39999C13.9883 8.39999 15.6 10.0118 15.6 12Z" fill="#212121"/>
</svg>
