<svg width="24" height="24" viewBox="0 0 24 24" fill="none" xmlns="http://www.w3.org/2000/svg">
<path d="M3.01549 5.69326C3.00525 5.79412 3 5.89645 3 6V15C3 16.6568 4.34314 18 6 18H9V18.75C9 19.1642 8.66423 19.5 8.25 19.5H7.5C7.08579 19.5 6.75 19.8358 6.75 20.25C6.75 20.6642 7.08579 21 7.5 21H16.5C16.9142 21 17.25 20.6642 17.25 20.25C17.25 19.8358 16.9142 19.5 16.5 19.5H15.75C15.3358 19.5 15 19.1642 15 18.75V18H18C19.6568 18 21 16.6568 21 15V6C21 4.34314 19.6568 3 18 3H6C4.4467 3 3.16912 4.1805 3.01549 5.69326ZM13.5 18V18.75C13.5 19.013 13.5451 19.2654 13.628 19.5H10.372C10.4548 19.2654 10.5 19.013 10.5 18.75V18H13.5ZM18 16.5H6C5.17157 16.5 4.5 15.8285 4.5 15H19.5C19.5 15.8285 18.8285 16.5 18 16.5Z" fill="#212121"/>
</svg>
