<svg width="24" height="24" viewBox="0 0 24 24" fill="none" xmlns="http://www.w3.org/2000/svg">
<path d="M15.7155 12.8573V15.7145H18.5718L18.5711 18.5704L21.429 18.5711V21.4282H18.5718V18.5716L15.7155 18.5711V21.4282H12.8583V18.5711L15.7147 18.5716V15.7145H12.8583V12.8573H15.7155ZM8.99974 12.8576C10.1833 12.8576 11.1426 13.817 11.1426 15.0004V19.2857C11.1426 20.4692 10.1833 21.4286 8.99974 21.4286H4.71452C3.53105 21.4286 2.57166 20.4692 2.57166 19.2857V15.0004C2.57166 13.817 3.53105 12.8576 4.71452 12.8576H8.99974ZM8.99974 14.5719H4.71452C4.47783 14.5719 4.28595 14.7637 4.28595 15.0004V19.2857C4.28595 19.5224 4.47783 19.7143 4.71452 19.7143H8.99974C9.23649 19.7143 9.42832 19.5224 9.42832 19.2857V15.0004C9.42832 14.7637 9.23649 14.5719 8.99974 14.5719ZM8.35715 15.643V18.643H5.35715V15.643H8.35715ZM21.429 12.8573V15.7145H18.5718V12.8573H21.429ZM8.99974 2.57185C10.1833 2.57185 11.1426 3.53125 11.1426 4.71471V9.00001C11.1426 10.1835 10.1833 11.1429 8.99974 11.1429H4.71452C3.53105 11.1429 2.57166 10.1835 2.57166 9.00001V4.71471C2.57166 3.53125 3.53105 2.57185 4.71452 2.57185H8.99974ZM19.2855 2.57185C20.4689 2.57185 21.4283 3.53125 21.4283 4.71471V9.00001C21.4283 10.1835 20.4689 11.1429 19.2855 11.1429H15.0003C13.8168 11.1429 12.8574 10.1835 12.8574 9.00001V4.71471C12.8574 3.53125 13.8168 2.57185 15.0003 2.57185H19.2855ZM8.99974 4.28614H4.71452C4.47783 4.28614 4.28595 4.47802 4.28595 4.71471V9.00001C4.28595 9.23666 4.47783 9.42858 4.71452 9.42858H8.99974C9.23649 9.42858 9.42832 9.23666 9.42832 9.00001V4.71471C9.42832 4.47802 9.23649 4.28614 8.99974 4.28614ZM19.2855 4.28614H15.0003C14.7635 4.28614 14.5717 4.47802 14.5717 4.71471V9.00001C14.5717 9.23666 14.7635 9.42858 15.0003 9.42858H19.2855C19.5222 9.42858 19.714 9.23666 19.714 9.00001V4.71471C19.714 4.47802 19.5222 4.28614 19.2855 4.28614ZM18.6429 5.35734V8.35734H15.6429V5.35734H18.6429ZM8.35486 5.35963V8.35504H5.35945V5.35963H8.35486Z" fill="#212121"/>
</svg>
