<svg width="24" height="24" viewBox="0 0 24 24" fill="none" xmlns="http://www.w3.org/2000/svg">
<path d="M12 22.5C17.799 22.5 22.5 17.799 22.5 12C22.5 6.20101 17.799 1.5 12 1.5C6.20101 1.5 1.5 6.20101 1.5 12C1.5 17.799 6.20101 22.5 12 22.5ZM7.5 13.5C6.67157 13.5 6 12.8285 6 12C6 11.1715 6.67157 10.5 7.5 10.5C8.32845 10.5 9 11.1715 9 12C9 12.8285 8.32845 13.5 7.5 13.5ZM13.5 12C13.5 12.8285 12.8285 13.5 12 13.5C11.1715 13.5 10.5 12.8285 10.5 12C10.5 11.1715 11.1715 10.5 12 10.5C12.8285 10.5 13.5 11.1715 13.5 12ZM16.5 13.5C15.6715 13.5 15 12.8285 15 12C15 11.1715 15.6715 10.5 16.5 10.5C17.3285 10.5 18 11.1715 18 12C18 12.8285 17.3285 13.5 16.5 13.5Z" fill="#212121"/>
</svg>
